<svg version="1.1" id="Layer_1" xmlns="http://www.w3.org/2000/svg" xmlns:xlink="http://www.w3.org/1999/xlink" x="0px" y="0px"
	 width="100%" viewBox="0 0 1024 1024" enable-background="new 0 0 1024 1024" xml:space="preserve">
<path fill="#000000" opacity="1.000000" stroke="none" 
	d="
M726.000000,762.317444 
	C586.833801,762.327881 448.167603,762.300537 309.501495,762.385071 
	C286.175385,762.399292 262.849731,762.912659 239.523544,763.165833 
	C223.629822,763.338318 212.175720,755.688660 206.010193,741.597717 
	C199.821350,727.453430 203.353149,714.079346 213.641876,702.833313 
	C223.916382,691.602844 237.658066,685.738953 251.360443,680.062927 
	C268.262024,673.061646 285.762604,667.774719 303.525879,663.548340 
	C319.211304,659.816345 335.152466,657.276428 351.139069,655.027527 
	C370.259766,652.337708 389.462524,650.208435 408.688354,648.925049 
	C429.602386,647.528992 450.538391,645.849060 471.533478,645.838989 
	C499.366547,645.825562 527.200073,645.788391 555.032288,645.947083 
	C559.601562,645.973145 562.050720,644.608276 564.094604,640.168640 
	C580.772400,603.942383 604.236389,573.195068 637.736694,550.774292 
	C643.763550,546.740662 650.355347,544.085693 657.457214,542.668152 
	C663.766602,541.408691 671.118713,545.235107 674.339355,551.458252 
	C677.935608,558.407288 677.048462,565.253662 671.684204,570.195374 
	C664.065125,577.214294 654.958923,582.227112 646.697205,588.394958 
	C634.969543,597.150330 624.774902,607.349731 616.289490,619.159851 
	C611.451416,625.893494 606.782410,632.816711 602.960999,640.240906 
	C600.429443,645.159302 600.738708,645.741577 606.473877,645.759766 
	C613.307068,645.781494 620.140442,645.759033 626.973694,645.753235 
	C673.640137,645.713501 720.306641,645.661255 766.973083,645.655334 
	C770.790527,645.654846 774.677368,645.199402 778.411072,646.296265 
	C786.559937,648.690186 789.974792,654.427124 789.170898,664.100830 
	C788.572693,671.298523 782.379333,677.974182 775.046631,678.890930 
	C771.427429,679.343323 767.728882,679.251221 764.066162,679.252563 
	C669.234009,679.287292 574.401306,679.123779 479.570190,679.448364 
	C456.605286,679.526917 433.598236,680.581726 410.697906,682.330994 
	C389.980499,683.913513 369.208923,685.717468 348.722809,689.383911 
	C332.220184,692.337463 315.869873,696.053223 299.742249,700.809326 
	C283.305450,705.656677 267.274689,711.481140 251.642410,718.442627 
	C249.224503,719.519409 246.996613,721.040588 244.734573,722.442993 
	C243.437988,723.246826 242.190475,724.277283 242.594910,726.043335 
	C243.021240,727.905090 244.485291,728.758301 246.270279,728.897766 
	C249.920029,729.182983 253.584091,729.607849 257.233032,729.531982 
	C314.390289,728.343567 371.553741,729.135010 428.713440,729.018799 
	C516.712830,728.839966 604.714050,728.814880 692.712158,729.224609 
	C719.028259,729.347107 745.349915,728.838013 771.644592,729.374817 
	C785.259521,729.652710 798.744202,728.960815 811.896912,726.427490 
	C828.373352,723.254028 844.349365,717.786865 859.089722,709.357178 
	C893.544556,689.653320 913.929626,659.517395 924.867920,621.967468 
	C930.322021,603.244324 932.905151,584.128296 933.344055,564.873779 
	C933.683655,549.980957 931.597900,535.012695 928.677673,520.291626 
	C923.559631,494.491211 914.662903,469.973206 902.347107,446.821350 
	C884.550781,413.366821 860.795837,384.651947 831.700256,360.305237 
	C807.934814,340.418671 782.145508,323.724304 754.139771,310.535370 
	C741.503235,304.584442 728.360718,299.819397 714.926392,295.880890 
	C710.718506,294.647247 710.045227,296.414246 710.017639,299.996613 
	C709.893311,316.153564 710.896240,332.353180 709.261658,348.457672 
	C706.928528,371.443726 700.781433,393.454559 691.626221,414.694214 
	C679.716553,442.323792 662.643494,466.147003 640.401062,486.373352 
	C618.847595,505.973206 594.783936,521.269592 567.098450,530.801758 
	C556.227905,534.544495 545.161316,537.206787 533.959351,539.634949 
	C517.593628,543.182312 509.316284,529.834167 511.706696,518.668030 
	C513.118347,512.073914 517.387146,508.271240 524.819641,506.821655 
	C533.616333,505.105988 542.371033,503.197449 550.982849,500.619720 
	C569.038086,495.215393 585.211792,486.266937 600.710876,475.689484 
	C633.702637,453.173950 655.907654,422.485992 668.979980,385.213928 
	C675.313660,367.155304 678.342590,348.338867 678.194702,328.906494 
	C677.693604,263.076874 677.819092,197.242645 677.626587,131.410400 
	C677.600281,122.419838 677.168335,113.429123 676.844788,104.441330 
	C676.685425,100.015495 674.434631,98.874687 670.680420,101.436165 
	C668.922668,102.635475 667.382141,104.253975 666.011719,105.905411 
	C635.585144,142.572708 603.312256,177.591324 570.890320,212.476074 
	C566.812012,216.864182 562.539551,221.071732 558.364685,225.370316 
	C556.782654,226.999146 555.034241,227.822861 552.603882,227.686737 
	C506.646851,225.113052 460.650543,226.349838 414.666962,226.395248 
	C407.842743,226.401993 401.000366,226.603500 394.201904,227.153702 
	C390.108307,227.484985 387.098206,226.141327 384.484680,223.237030 
	C372.005737,209.369827 359.420807,195.596802 347.043182,181.639832 
	C330.798981,163.322845 314.712830,144.865723 298.560425,126.467339 
	C292.192657,119.214119 286.697693,111.220177 279.829132,104.391853 
	C278.411682,102.982689 277.052856,101.506493 275.555237,100.188248 
	C273.996399,98.816139 272.216125,97.923294 270.070007,98.893356 
	C268.007324,99.825699 267.999634,101.717094 267.955475,103.572845 
	C267.686157,114.897476 267.204071,126.221931 267.190125,137.546936 
	C267.122955,192.040100 265.518219,246.527786 266.368805,301.020264 
	C266.631165,317.828369 266.428040,334.707062 268.319244,351.431305 
	C270.101837,367.194824 274.975647,382.228394 280.744507,396.995911 
	C289.238251,418.738739 301.927032,437.851379 318.331757,454.161835 
	C339.089722,474.800476 363.093750,490.691711 391.179413,500.111908 
	C400.233093,503.148651 409.529449,504.704132 418.732758,506.805420 
	C430.238770,509.432465 435.470764,516.575012 433.176605,527.697388 
	C431.446045,536.087280 422.080170,541.750183 412.503876,539.962708 
	C401.394409,537.889038 390.330963,535.523315 379.564972,532.063599 
	C376.184265,530.977173 373.481476,531.249451 370.654510,533.199402 
	C355.308868,543.783875 339.666840,553.911011 323.943848,563.931030 
	C299.102875,579.761902 274.495667,595.960815 249.849762,612.096069 
	C231.752197,623.944214 213.865891,636.118225 195.674820,647.819519 
	C177.475861,659.525940 159.274277,671.219910 141.346405,683.340942 
	C131.282425,690.145264 120.955177,696.562134 110.934662,703.428101 
	C105.948471,706.844482 101.369667,710.759644 102.199104,717.969604 
	C102.724815,722.539368 104.686806,724.956543 109.506752,724.892822 
	C120.005173,724.754089 130.505478,724.740234 141.005112,724.715637 
	C152.376282,724.688904 159.053619,729.369751 160.166306,738.084656 
	C161.699738,750.095276 155.874176,760.009766 144.594238,761.656067 
	C128.754684,763.967896 112.658905,763.995056 96.807808,761.463867 
	C81.970642,759.094604 72.906334,749.016541 66.955505,736.010254 
	C58.737507,718.048706 65.438744,695.386475 81.312248,682.630981 
	C97.188934,669.872864 115.152924,660.228271 132.064499,649.011169 
	C150.235535,636.958618 168.333176,624.794312 186.572281,612.845886 
	C219.290421,591.412415 252.205078,570.276855 284.805695,548.666870 
	C300.081665,538.540894 315.764099,529.086060 331.176849,519.193420 
	C333.376984,517.781311 335.699127,516.382324 337.175812,514.139771 
	C337.094116,512.454956 335.879150,511.830444 334.763092,511.108215 
	C299.902222,488.549530 274.009338,458.127686 255.876434,420.947266 
	C248.692963,406.218048 243.518845,390.694427 240.378525,374.691833 
	C237.598297,360.524078 235.803375,346.098328 235.755737,331.583557 
	C235.634872,294.750702 236.056274,257.911011 235.486496,221.086014 
	C234.885696,182.255798 235.411316,143.428741 234.982330,104.602783 
	C234.882797,95.594627 236.416260,86.965149 241.653503,79.434471 
	C252.547287,63.770111 273.235046,59.888329 290.007080,70.227211 
	C296.173767,74.028580 301.214417,79.093307 305.941010,84.513245 
	C334.607971,117.385254 363.539795,150.018219 392.663666,182.487885 
	C401.510345,192.350906 410.131195,195.473328 422.655029,195.261002 
	C454.633820,194.718826 486.634827,195.392670 518.625488,195.723022 
	C525.282471,195.791763 531.917358,194.692459 538.587097,195.569138 
	C541.097961,195.899139 542.966736,194.535736 544.614380,192.665146 
	C561.128113,173.916458 577.401245,154.944916 594.305664,136.554123 
	C612.342163,116.931656 629.420532,96.481804 647.194275,76.638016 
	C664.612671,57.190937 692.581604,63.861946 703.243408,79.719002 
	C707.513428,86.069733 710.298157,93.087013 710.222656,101.185143 
	C709.800232,146.508636 709.599731,191.834320 709.400024,237.159592 
	C709.372864,243.317535 709.872314,249.476364 709.936523,255.636765 
	C709.967224,258.574493 711.115479,260.116821 713.959961,261.041412 
	C725.945862,264.937378 738.034668,268.600739 749.769958,273.162140 
	C763.708130,278.579834 777.283691,284.863037 790.300903,292.354706 
	C809.518555,303.414795 828.347778,315.175781 845.397156,329.264618 
	C866.733093,346.895599 886.018677,366.751160 903.012695,388.721436 
	C921.045898,412.035065 935.445923,437.366547 945.973267,464.916443 
	C951.317810,478.903198 955.828552,493.182190 958.895691,507.781860 
	C964.502014,534.468323 965.870361,561.656494 963.722961,588.728455 
	C960.756897,626.120178 949.501282,661.004761 927.340027,691.793030 
	C907.634644,719.169434 881.632568,738.101196 850.361206,750.690308 
	C828.876465,759.339539 806.671936,761.706299 783.998047,762.083252 
	C764.835999,762.401917 745.666321,762.257019 726.000000,762.317444 
z"/>
<path fill="#000000" opacity="1.000000" stroke="none" 
	d="
M392.091248,337.642883 
	C400.396301,341.208069 408.419861,344.469727 415.794586,349.026611 
	C424.406372,354.347778 432.071686,360.400879 434.853546,371.002899 
	C436.637756,377.802765 434.567871,383.389099 430.121643,387.855499 
	C425.791565,392.205139 420.132263,393.448700 413.966766,391.164429 
	C408.162354,389.013947 403.752747,384.982697 399.347687,380.935150 
	C389.307739,371.709991 377.080292,367.633667 364.017426,364.895752 
	C353.144043,362.616760 342.181763,363.092285 331.257355,362.392029 
	C324.045868,361.929810 318.337891,356.591797 316.975952,348.757019 
	C315.514709,340.351410 319.481384,332.447021 326.260193,329.659973 
	C332.389038,327.140137 338.629669,327.812439 344.958191,328.236908 
	C360.956696,329.309937 376.413177,333.005157 392.091248,337.642883 
z"/>
<path fill="#000000" opacity="1.000000" stroke="none" 
	d="
M594.081909,328.915710 
	C601.818726,328.315399 609.032898,327.159637 616.401123,328.696350 
	C627.763550,331.066101 630.197327,337.654755 629.563965,348.163513 
	C628.950073,358.349609 622.311340,363.362946 612.429321,362.665588 
	C591.791382,361.209229 571.843994,363.672180 553.768921,374.513214 
	C548.261108,377.816681 543.511963,382.389343 538.433960,386.404266 
	C531.234680,392.096436 521.353027,392.336334 515.475586,386.936462 
	C509.020294,381.005676 508.302643,370.500916 513.925293,362.795380 
	C520.304993,354.052368 529.378601,348.805511 538.716064,343.921356 
	C555.926331,334.919250 574.524048,331.008423 594.081909,328.915710 
z"/>
<path fill="#000000" opacity="1.000000" stroke="none" 
	d="
M468.000061,431.717896 
	C477.475861,431.884155 486.457245,431.916321 495.426361,432.263855 
	C508.140686,432.756500 513.902344,442.657990 505.771515,454.617188 
	C499.044708,464.511383 492.420105,474.460938 486.708008,484.987854 
	C484.413116,489.217163 482.355774,493.596405 479.784332,497.649872 
	C475.599609,504.246429 470.551361,504.614685 465.138611,498.927490 
	C461.196960,494.785980 458.623138,489.736725 456.095886,484.675690 
	C450.965027,474.400787 444.006927,465.222839 438.408783,455.230713 
	C435.954315,450.849701 433.529846,446.352661 435.431610,441.083069 
	C437.142487,436.342377 440.362213,433.524139 445.606689,432.745331 
	C452.893433,431.663300 460.195374,431.877594 468.000061,431.717896 
z"/>
</svg>